# xmcd CD database file
#
# Track frame offsets:
#	150
#	14568
#	30541
#	47058
#	64199
#	78871
#	92693
#	108777
#	124979
#	147095
#	166553
#	185372
#
# Disc length: 2733 seconds
#
# Revision: 1
# Processed by: cddbd v1.5.1PL0 Copyright (c) Steve Scherf et al.
# Submitted via: CDex 1.51
#
DISCID=900aab0c
DTITLE=wir sind herlden - von hier an blind
DYEAR=2004
DGENRE=New Age
TTITLE0=gekommen um zu bleiben
TTITLE1=aurelie
TTITLE2=ausser dich
TTITLE3=wir sind helden
TTITLE4=denkmal
TTITLE5=ist das so?
TTITLE6=mussen nur wollen
TTITLE7=guten tag
TTITLE8=du erkennst mich nicht
TTITLE9=die nacht
TTITLE10=die teit heilt alle
TTITLE11=heldenzeit
EXTD=YEAR: 2004
EXTT0=
EXTT1=
EXTT2=
EXTT3=
EXTT4=
EXTT5=
EXTT6=
EXTT7=
EXTT8=
EXTT9=
EXTT10=
EXTT11=
PLAYORDER=
